<?xml version="1.0" standalone="no"?><!DOCTYPE svg PUBLIC "-//W3C//DTD SVG 1.1//EN" "http://www.w3.org/Graphics/SVG/1.1/DTD/svg11.dtd"><svg t="1714229575803" class="icon" viewBox="0 0 1024 1024" version="1.1" xmlns="http://www.w3.org/2000/svg" p-id="4627" data-darkreader-inline-fill="" xmlns:xlink="http://www.w3.org/1999/xlink" width="64" height="64"><path d="M261.12 736h677.664v-187.52l-128.736-73.824-22.208-9.6-526.72 3.616z" fill="#FFFFFF" p-id="4628" data-darkreader-inline-fill="" style="--darkreader-inline-fill: #282b36;"></path><path d="M704.384 711.104c6.304-21.6 3.904-41.408-6.592-56.128-9.6-13.504-25.824-21.312-45.312-22.208l-369.44-4.8c-2.4 0-4.48-1.216-5.696-3.008s-1.504-4.16-0.896-6.592a10.08 10.08 0 0 1 8.704-6.592l372.736-4.8c44.16-2.112 92.16-37.824 108.928-81.6l21.312-55.52a12.16 12.16 0 0 0 0.64-7.2 242.4 242.4 0 0 0-236.8-189.664 242.72 242.72 0 0 0-229.888 164.8 110.72 110.72 0 0 0-76.544-21.312c-51.328 5.12-92.8 46.208-97.536 97.536a114.56 114.56 0 0 0 2.688 38.112A154.88 154.88 0 0 0 0 707.2c0 7.488 0.64 15.04 1.504 22.496 0.64 3.616 3.616 6.304 7.2 6.304H690.56a9.28 9.28 0 0 0 8.704-6.592l5.12-18.304z" fill="#F38020" p-id="4629" data-darkreader-inline-fill="" style="--darkreader-inline-fill: #b95a0a;"></path><path d="M822.016 473.696l-10.24 0.32c-2.4 0-4.48 1.792-5.44 4.16l-14.4 50.112c-6.304 21.6-3.904 41.408 6.592 56.128 9.6 13.504 25.824 21.312 45.312 22.208l78.624 4.8c2.4 0 4.48 1.216 5.696 3.008s1.504 4.48 0.896 6.592a10.08 10.08 0 0 1-8.704 6.592l-81.92 4.8c-44.416 2.112-92.16 37.824-108.928 81.6l-6.016 15.296c-1.216 3.008 0.896 6.016 4.16 6.016h281.504a7.36 7.36 0 0 0 7.2-5.408A205.12 205.12 0 0 0 1024 675.392a202.24 202.24 0 0 0-201.984-201.664" fill="#FAAE40" p-id="4630" data-darkreader-inline-fill="" style="--darkreader-inline-fill: #ae6905;"></path></svg>