<svg class="icon" style="width: 1.0244140625em;height: 1em;vertical-align: middle;fill: currentColor;overflow: hidden;" viewBox="0 0 1049 1024" version="1.1" xmlns="http://www.w3.org/2000/svg"><path d="M524.976063 0C234.67324 0 0 234.67424 0 524.976063c0 232.06626 150.365872 428.496786 358.965308 498.030264 26.074804 5.214961 35.635733-11.298915 35.635732-25.205811 0-12.167909-0.869993-53.887596-0.869993-97.346269-146.018905 31.289765-176.439677-62.579531-176.439677-62.579531-23.467824-60.841544-58.234563-76.486426-58.234563-76.486426-47.803641-32.159759 3.476974-32.159759 3.476974-32.159759 53.019602 3.476974 80.832394 53.889596 80.832394 53.889596 46.934648 79.9624 122.552081 57.36357 152.972852 43.457674 4.345967-33.897746 18.252863-57.36557 33.028753-70.402472-116.469126-12.168909-239.021207-57.36457-239.021208-259.011058 0-57.36457 20.859844-104.299218 53.889596-140.804944-5.215961-13.036902-23.468824-66.925498 5.213961-139.065957 0 0 44.327668-13.906896 144.280918 53.887596 41.719687-11.298915 86.917348-17.38287 131.244016-17.382869s89.524329 6.083954 131.244015 17.382869c99.95425-67.794492 144.281918-53.887596 144.281918-53.887596 28.681785 72.140459 10.429922 126.029055 5.214961 139.065957 33.896746 36.504726 53.887596 83.439374 53.887596 140.804944 0 201.646488-122.552081 245.973155-239.889201 259.011058 19.121857 16.513876 35.635733 47.803641 35.635733 97.34627 0 70.402472-0.869993 126.898048-0.869994 144.280917 0 13.906896 9.561928 30.420772 35.636733 25.205811 208.598436-69.532479 358.964308-265.964005 358.964308-498.031264C1049.952125 234.67424 814.406892 0 524.976063 0z" fill="#2C2C2C" /><path d="M199.038507 753.565348c-0.868993 2.60798-5.214961 3.476974-8.691935 1.738987s-6.083954-5.214961-4.344967-7.822941c0.868993-2.60698 5.214961-3.476974 8.690935-1.737987s5.214961 5.214961 4.345967 7.821941z m20.859844 23.467824c-2.60698 2.60698-7.821941 0.869993-10.429922-2.60798-3.475974-3.475974-4.345967-8.690935-1.737987-11.298915 2.60698-2.60698 6.952948-0.868993 10.429922 2.60798 3.476974 4.345967 4.345967 9.559928 1.737987 11.298915zM240.758194 807.453944c-3.475974 2.60698-8.690935 0-11.298915-4.345967-3.476974-4.345967-3.476974-10.429922 0-12.167909 3.476974-2.60798 8.691935 0 11.299915 4.345967 3.475974 4.344967 3.475974 9.559928 0 12.167909z m28.682785 29.551778c-2.60698 3.475974-8.691935 2.60698-13.906896-1.738987-4.345967-4.344967-6.083954-10.429922-2.60698-13.036902 2.60698-3.476974 8.690935-2.60798 13.906896 1.737987 4.344967 3.476974 5.214961 9.560928 2.60698 13.037902z m39.112707 16.513877c-0.869993 4.345967-6.953948 6.083954-13.037902 4.345967-6.083954-1.737987-9.559928-6.953948-8.691935-10.429922 0.869993-4.345967 6.953948-6.083954 13.037902-4.345967 6.083954 1.737987 9.559928 6.083954 8.691935 10.429922z m42.58968 3.476974c0 4.345967-5.215961 7.821941-11.299915 7.821941-6.083954 0-11.299915-3.475974-11.299915-7.821941s5.215961-7.822941 11.299915-7.822942c6.083954 0 11.299915 3.476974 11.299915 7.822942z m39.980701-6.953948c0.869993 4.345967-3.476974 8.691935-9.559929 9.560928-6.084954 0.869993-11.299915-1.737987-12.169908-6.083954-0.867993-4.345967 3.476974-8.691935 9.561928-9.559929 6.083954-0.869993 11.298915 1.736987 12.167909 6.082955z m0 0" fill="#191717" /></svg>